<svg width="32" height="32" viewBox="0 0 32 32" fill="none" xmlns="http://www.w3.org/2000/svg">
<path fill-rule="evenodd" clip-rule="evenodd" d="M11.2 3.20001C12.0837 3.20001 12.8 3.91636 12.8 4.80001V6.40001H13.9716C13.9904 6.39968 14.0093 6.39968 14.0282 6.40001H17.6C18.4837 6.40001 19.2 7.11636 19.2 8.00001C19.2 8.88367 18.4837 9.60001 17.6 9.60001H15.3248C14.7462 12.3 13.8092 14.8665 12.5665 17.2474C13.0317 17.8141 13.5194 18.3617 14.0283 18.8888C14.642 19.5245 14.6241 20.5374 13.9884 21.1512C13.3526 21.7649 12.3397 21.747 11.726 21.1112C11.4234 20.7978 11.1275 20.4779 10.8385 20.1517C9.42233 22.2561 7.7502 24.1734 5.86709 25.8588C5.20865 26.4482 4.19713 26.3921 3.60781 25.7337C3.01849 25.0753 3.07452 24.0637 3.73297 23.4744C5.67392 21.7372 7.36344 19.7261 8.74096 17.5023C7.85062 16.2399 7.05389 14.9064 6.36094 13.5121C5.96769 12.7207 6.29039 11.7604 7.08171 11.3672C7.87304 10.9739 8.83333 11.2966 9.22659 12.088C9.60034 12.84 10.0079 13.5725 10.4474 14.2832C11.1152 12.7884 11.652 11.2224 12.0432 9.60001H4.80003C3.91637 9.60001 3.20003 8.88367 3.20003 8.00001C3.20003 7.11636 3.91637 6.40001 4.80003 6.40001H9.60003V4.80001C9.60003 3.91636 10.3164 3.20001 11.2 3.20001ZM20.8 12.8C21.4061 12.8 21.9601 13.1424 22.2311 13.6845L27.0167 23.2557C27.0271 23.2754 27.0371 23.2953 27.0466 23.3155L28.6311 26.4845C29.0263 27.2748 28.7059 28.2359 27.9156 28.6311C27.1252 29.0263 26.1641 28.7059 25.7689 27.9156L24.6112 25.6H16.9889L15.8311 27.9156C15.4359 28.7059 14.4749 29.0263 13.6845 28.6311C12.8941 28.2359 12.5738 27.2748 12.9689 26.4845L14.5534 23.3155C14.563 23.2953 14.573 23.2754 14.5833 23.2557L19.3689 13.6845C19.64 13.1424 20.194 12.8 20.8 12.8ZM18.5889 22.4H23.0112L20.8 17.9777L18.5889 22.4Z" fill="#A4A4A4"/>
</svg>
