<svg width="58" height="58" viewBox="0 0 58 58" fill="none" xmlns="http://www.w3.org/2000/svg">
<rect width="58" height="58" rx="12" fill="black"/>
<path d="M15.0415 44.1311C14.8071 44.1311 14.4438 44.0959 13.9516 44.0256C13.5766 43.6272 13.2368 43.0881 12.9321 42.4084C12.6508 41.7053 12.4282 40.967 12.2641 40.1936C12.1235 39.3967 12.0532 38.6115 12.0532 37.8381C12.0766 37.0412 12.2172 36.3381 12.4751 35.7287C12.4751 35.7053 12.5805 35.424 12.7915 34.885C13.0258 34.3459 13.3188 33.6662 13.6704 32.8459C14.0219 32.0022 14.4204 31.0764 14.8657 30.0686C15.311 29.0373 15.7563 28.0295 16.2016 27.0451C16.6469 26.0608 17.0688 25.1701 17.4672 24.3733C17.8891 23.5529 18.2524 22.9201 18.5571 22.4748C18.768 22.1467 18.9555 21.8303 19.1196 21.5256C19.3071 21.2209 19.4829 20.9397 19.6469 20.6819C19.9047 20.26 20.1391 19.8733 20.3501 19.5217C20.5844 19.1467 20.8305 18.8186 21.0883 18.5373C21.3696 18.2326 21.6743 17.9748 22.0024 17.7639C22.3305 17.5295 22.729 17.3303 23.1977 17.1662C23.479 17.2834 23.7251 17.4123 23.936 17.5529C24.1469 17.6701 24.3344 17.8225 24.4985 18.01L24.604 18.5022C24.6508 18.6662 24.7212 18.7834 24.8149 18.8537C24.9321 18.9006 25.0258 18.924 25.0962 18.924C25.4008 18.9944 25.6587 19.0764 25.8696 19.1701C26.104 19.2404 26.3501 19.2873 26.6079 19.3108C26.7016 19.4514 26.7837 19.592 26.854 19.7326C26.9477 19.8733 27.0415 20.0022 27.1352 20.1194C27.604 20.799 27.9907 21.4553 28.2954 22.0881C28.6001 22.7209 28.6001 23.4123 28.2954 24.1623L28.3305 24.549C28.4477 24.7131 28.5063 24.8654 28.5063 25.0061C28.5063 25.1467 28.4829 25.3459 28.436 25.6037C28.4126 25.7912 28.3891 26.0022 28.3657 26.2365C28.3657 26.4475 28.4008 26.6819 28.4712 26.9397L28.7172 27.2209C29.0922 27.4084 29.4555 27.5022 29.8071 27.5022C30.2758 27.5022 30.6977 27.3967 31.0727 27.1858C31.4477 26.9748 31.7993 26.7639 32.1274 26.5529C32.3852 26.3654 32.6196 26.2131 32.8305 26.0959C33.0649 25.9787 33.2876 25.8967 33.4985 25.8498C33.9907 25.3811 34.436 24.9709 34.8344 24.6194C35.2563 24.2444 35.6899 23.8694 36.1352 23.4944C36.979 22.8147 37.7993 22.0881 38.5962 21.3147C39.393 20.5178 40.0258 19.5334 40.4946 18.3615C40.7524 18.1975 41.0454 18.1154 41.3735 18.1154C41.7016 18.1154 42.0297 18.1858 42.3579 18.3264C42.686 18.4436 43.0141 18.5842 43.3422 18.7483C43.4126 18.7951 43.4712 18.8303 43.518 18.8537C43.5883 18.8772 43.6587 18.9123 43.729 18.9592C43.729 19.217 43.8344 19.4514 44.0454 19.6623C44.1626 19.7561 44.2446 19.8147 44.2915 19.8381C44.3383 19.8615 44.3852 19.885 44.4321 19.9084C44.6196 20.0256 44.7719 20.1311 44.8891 20.2248C45.0297 20.3186 45.1352 20.4475 45.2055 20.6115C45.4165 21.2444 45.768 21.7365 46.2602 22.0881C46.2133 22.3459 46.2251 22.6037 46.2954 22.8615C46.3657 23.0959 46.4477 23.3303 46.5415 23.5647C46.5883 23.6584 46.6235 23.7522 46.6469 23.8459C46.6704 23.9162 46.7055 24.01 46.7524 24.1272L45.979 24.0569L46.0844 24.8303C46.1547 25.2287 46.1196 25.674 45.979 26.1662C45.8618 26.6584 45.7212 27.0451 45.5571 27.3264C45.604 28.0295 45.6274 28.592 45.6274 29.0139C45.6274 29.4123 45.604 29.7873 45.5571 30.1389C45.5102 30.4904 45.4282 30.8303 45.311 31.1584C45.2172 31.4631 45.0883 31.7912 44.9243 32.1428C45.018 33.924 44.8071 35.5529 44.2915 37.0295C43.7993 38.5061 43.2602 39.8889 42.6743 41.1779C42.604 41.342 42.5337 41.4944 42.4633 41.635C42.393 41.7756 42.3344 41.9162 42.2876 42.0569C42.0297 42.1272 41.7954 42.2092 41.5844 42.3029C41.3735 42.3967 41.1743 42.5022 40.9868 42.6194C40.729 42.7834 40.4712 42.924 40.2133 43.0412C39.9555 43.135 39.686 43.1819 39.4047 43.1819C38.2797 42.3615 37.6938 40.9436 37.6469 38.9279C37.6235 36.9123 38.0571 34.3459 38.9477 31.2287C39.1118 31.1115 39.1821 30.9358 39.1587 30.7014V30.3147L38.8071 30.2795C38.6899 30.2795 38.5844 30.2912 38.4907 30.3147C38.3969 30.3381 38.3266 30.4436 38.2797 30.6311C37.5297 31.1701 36.7094 31.7326 35.8188 32.3186C34.9516 32.8811 34.0493 33.4084 33.1118 33.9006C32.1743 34.3694 31.2133 34.7678 30.229 35.0959C29.268 35.4006 28.3305 35.5529 27.4165 35.5529C25.0727 35.5529 23.3032 34.3576 22.1079 31.967L21.7915 31.3342L21.4399 31.8967C21.3696 32.0139 21.2407 32.2483 21.0532 32.5998C20.8891 32.9279 20.7133 33.3147 20.5258 33.76C20.3618 34.2053 20.2094 34.6623 20.0688 35.1311C19.9516 35.5998 19.9165 36.01 19.9633 36.3615C19.6821 36.6194 19.4008 36.9123 19.1196 37.2404C18.8618 37.5686 18.6743 37.9436 18.5571 38.3654C18.5102 38.4826 18.4985 38.5998 18.5219 38.717C18.5454 38.8108 18.5805 38.9162 18.6274 39.0334C18.604 39.1975 18.5571 39.3147 18.4868 39.385C18.4165 39.4553 18.3344 39.5256 18.2407 39.5959C18.1235 39.7131 18.0063 39.842 17.8891 39.9826C17.7719 40.0998 17.6665 40.2404 17.5727 40.4045C17.5258 40.5451 17.4907 40.6975 17.4672 40.8615C17.4438 41.0022 17.4204 41.1311 17.3969 41.2483C17.3969 41.5061 17.3618 41.6819 17.2915 41.7756C17.0571 42.2678 16.8462 42.6779 16.6587 43.0061C16.4946 43.3108 16.3305 43.5451 16.1665 43.7092C16.0024 43.8733 15.8266 43.9787 15.6391 44.0256C15.4751 44.0959 15.2758 44.1311 15.0415 44.1311Z" fill="white"/>
</svg>
